<?xml version="1.0" encoding="UTF-8" standalone="no"?>
<!DOCTYPE svg PUBLIC "-//W3C//DTD SVG 1.1//EN" "http://www.w3.org/Graphics/SVG/1.1/DTD/svg11.dtd">
<svg version="1.1" xmlns="http://www.w3.org/2000/svg" xmlns:xlink="http://www.w3.org/1999/xlink" preserveAspectRatio="xMidYMid meet" viewBox="0 0 66 66" width="66" height="66"><defs><path d="M9.48 9.82L14.31 18.68L18.98 9.82L24.94 9.82L17.05 24L17.05 31.57L11.25 31.57L11.25 24.16L3.2 9.82L9.48 9.82Z" id="bWjBbkqIl"></path><path d="M37.17 10.22L38.39 10.56L39.56 11.02L40.66 11.6L41.68 12.29L42.63 13.08L43.48 13.98L44.22 14.96L44.85 16.04L45.36 17.19L45.74 18.41L45.97 19.7L46.05 21.06L45.97 22.44L45.74 23.76L45.36 25.01L44.85 26.18L44.22 27.27L43.48 28.27L42.63 29.17L41.68 29.98L40.66 30.67L39.56 31.25L38.39 31.72L37.17 32.06L35.91 32.26L34.61 32.33L33.31 32.23L32.05 32.01L30.83 31.65L29.67 31.18L28.57 30.6L27.54 29.91L26.6 29.11L25.75 28.22L25 27.23L24.37 26.15L23.86 24.99L23.48 23.75L23.25 22.44L23.17 21.06L23.25 19.67L23.48 18.36L23.86 17.12L24.37 15.96L25 14.89L25.75 13.91L26.6 13.02L27.54 12.24L28.57 11.56L29.67 10.99L30.83 10.54L32.05 10.21L33.31 10.01L34.61 9.94L35.91 10.01L37.17 10.22ZM31.78 15.56L30.74 16.28L29.91 17.23L29.31 18.36L28.94 19.65L28.81 21.06L28.94 22.46L29.31 23.75L29.91 24.89L30.74 25.83L31.78 26.56L33.02 27.02L34.45 27.18L35.93 27.02L37.19 26.56L38.22 25.83L39.04 24.89L39.62 23.75L39.97 22.46L40.09 21.06L39.96 19.65L39.59 18.36L38.99 17.23L38.16 16.28L37.12 15.56L35.88 15.1L34.45 14.94L33.02 15.1L31.78 15.56Z" id="f5IB1rgY6p"></path><path d="M45.73 14.94L45.73 10.1L62.8 10.1L62.8 14.94L57.17 14.94L57.17 31.85L51.37 31.85L51.37 14.94L45.73 14.94Z" id="a1o9Bq8nAb"></path><path d="M15.35 34.16L16.39 34.43L17.35 34.79L18.22 35.25L19.01 35.78L19.71 36.4L20.32 37.09L20.84 37.85L21.27 38.68L21.61 39.56L21.85 40.49L22 41.47L22.04 42.48L22 43.5L21.85 44.48L21.61 45.41L21.27 46.29L20.84 47.11L20.32 47.87L19.71 48.57L19.01 49.18L18.22 49.72L17.35 50.18L16.39 50.54L15.35 50.8L14.23 50.97L13.02 51.02L10.61 51.02L10.61 55.69L4.97 55.69L4.97 33.95L13.02 33.95L14.23 34L15.35 34.16ZM10.61 46.03L12.7 46.03L14.25 45.26L15.36 44.42L16.02 43.49L16.25 42.48L16.05 41.02L15.44 39.85L14.34 39.06L12.7 38.78L10.61 38.78L10.61 46.03Z" id="baeSZzCm0D"></path><path d="M37.01 34.06L38.23 34.4L39.39 34.86L40.5 35.44L41.52 36.13L42.46 36.93L43.31 37.82L44.06 38.81L44.69 39.88L45.2 41.03L45.58 42.26L45.81 43.55L45.89 44.9L45.81 46.29L45.58 47.61L45.2 48.85L44.69 50.03L44.06 51.11L43.31 52.11L42.46 53.02L41.52 53.82L40.5 54.51L39.39 55.1L38.23 55.56L37.01 55.9L35.75 56.11L34.45 56.18L33.15 56.08L31.89 55.85L30.67 55.5L29.51 55.03L28.4 54.44L27.38 53.75L26.44 52.96L25.59 52.06L24.84 51.07L24.21 50L23.7 48.84L23.32 47.6L23.09 46.28L23.01 44.9L23.09 43.52L23.32 42.21L23.7 40.97L24.21 39.81L24.84 38.74L25.59 37.75L26.44 36.87L27.38 36.08L28.4 35.4L29.51 34.83L30.67 34.38L31.89 34.05L33.15 33.85L34.45 33.78L35.75 33.85L37.01 34.06ZM31.78 39.4L30.74 40.12L29.91 41.07L29.31 42.21L28.94 43.5L28.81 44.9L28.94 46.31L29.31 47.59L29.91 48.73L30.74 49.68L31.78 50.4L33.02 50.86L34.45 51.02L35.88 50.86L37.12 50.4L38.16 49.68L38.99 48.73L39.59 47.59L39.96 46.31L40.09 44.9L39.96 43.5L39.59 42.21L38.99 41.07L38.16 40.12L37.12 39.4L35.88 38.94L34.45 38.78L33.02 38.94L31.78 39.4Z" id="d2TYSR1sIN"></path><path d="M45.89 52.96C45.89 51.02 47.34 49.73 48.95 49.73C50.56 49.73 52.01 51.02 52.01 52.96C52.01 54.89 50.56 56.18 48.95 56.18C47.34 56.02 45.89 54.73 45.89 52.96" id="h18cn9TTxP"></path></defs><g><g><g><use xlink:href="#bWjBbkqIl" opacity="1" fill="#ffffff" fill-opacity="1"></use></g><g><use xlink:href="#f5IB1rgY6p" opacity="1" fill="#ffffff" fill-opacity="1"></use></g><g><use xlink:href="#a1o9Bq8nAb" opacity="1" fill="#ffffff" fill-opacity="1"></use></g><g><use xlink:href="#baeSZzCm0D" opacity="1" fill="#ffffff" fill-opacity="1"></use></g><g><use xlink:href="#d2TYSR1sIN" opacity="1" fill="#ffffff" fill-opacity="1"></use></g><g><use xlink:href="#h18cn9TTxP" opacity="1" fill="#ffffff" fill-opacity="1"></use></g></g></g></svg>